<?xml version="1.0" encoding="utf-8"?>
<!-- Generator: Adobe Illustrator 22.1.0, SVG Export Plug-In . SVG Version: 6.00 Build 0)  -->
<svg version="1.1" id="Layer_1" xmlns="http://www.w3.org/2000/svg" xmlns:xlink="http://www.w3.org/1999/xlink" x="0px" y="0px"
	 viewBox="0 0 24 21.1" style="enable-background:new 0 0 24 21.1;" xml:space="preserve">
<title  id="simpleicons-artstation-icon">ArtStation icon</title>
<path d="M0,16.3l2,3.5h0c0.4,0.8,1.2,1.3,2.2,1.3h13.5l-2.8-4.8C14.9,16.3,0,16.3,0,16.3z M24,16.3c0-0.5-0.1-0.9-0.4-1.3L15.7,1.3
	C15.3,0.5,14.5,0,13.6,0H9.4l12.2,21.1l1.9-3.3C23.9,17.1,24,16.9,24,16.3z M12.9,12.8L7.4,3.4L2,12.8C2,12.8,12.9,12.8,12.9,12.8z"
	/>
</svg>
