<?xml version="1.0" encoding="utf-8"?>
<!-- Generator: Adobe Illustrator 22.1.0, SVG Export Plug-In . SVG Version: 6.00 Build 0)  -->
<svg version="1.1" id="Layer_1" xmlns:sketch="http://www.bohemiancoding.com/sketch/ns"
	 xmlns="http://www.w3.org/2000/svg" xmlns:xlink="http://www.w3.org/1999/xlink" x="0px" y="0px" viewBox="0 0 55 46.2"
	 style="enable-background:new 0 0 55 46.2;" xml:space="preserve">
<path d="M37,29.8c-3.7,0-6.7-3-6.7-6.7s3-6.7,6.7-6.7c3.4,0,5.8,2.7,7.6,4.8L55,8.6C50.8,3.4,44.3,0,37,0c-9,0-16.7,5.1-20.6,12.5V0
	H0v46.2h16.4V24.1l18.3,22c0.7,0.1,1.5,0.1,2.3,0.1c7.3,0,13.8-3.4,18-8.6L44.6,25C42.8,27.1,40.4,29.8,37,29.8z M13.4,43.1H3.1V8
	l10.3,12.4V43.1z M13.4,15.5L3.1,3.1h10.3V15.5z M37,43.1c-0.2,0-0.4,0-0.7,0l-19.1-23c1.5-9.6,9.8-17,19.8-17
	c5.4,0,10.3,2.1,13.9,5.6l-6.6,8c-1.8-2-4.4-3.3-7.3-3.3c-5.4,0-9.7,4.4-9.7,9.7c0,5.4,4.4,9.7,9.7,9.7c2.9,0,5.5-1.3,7.3-3.3l6.6,8
	C47.3,41,42.4,43.1,37,43.1z"/>
</svg>
