<?xml version="1.0" encoding="utf-8"?>
<!-- Generator: Adobe Illustrator 22.1.0, SVG Export Plug-In . SVG Version: 6.00 Build 0)  -->
<svg version="1.1" id="Layer_1" xmlns="http://www.w3.org/2000/svg" xmlns:xlink="http://www.w3.org/1999/xlink" x="0px" y="0px"
	 viewBox="0 0 170.4 41.6" style="enable-background:new 0 0 170.4 41.6;" xml:space="preserve">
<style type="text/css">
	.st0{fill:#282831;}
</style>
<g>
	<path class="st0" d="M47.5,24.8c-0.2,1.4-0.6,2.9-1.3,4.5c-0.7,1.6-1.6,3.1-2.6,4.5c-1,1.4-2.2,2.5-3.5,3.4
		c-1.3,0.9-2.7,1.4-4.1,1.4c-1.5,0-2.7-0.3-3.7-0.9c-0.9-0.6-1.7-1.3-2.2-2.3c-0.5-0.9-0.9-2-1-3.2c-0.2-1.2-0.3-2.4-0.3-3.6
		c0-1,0-2.3,0-4c0-1.7,0-3.4,0-5c0-1.6,0-3.1-0.1-4.3c-0.1-1.2-0.3-1.8-0.6-1.8c-0.7,0-1.4,0.5-2.1,1.6c-0.7,1.1-1.3,2.4-2,4
		c-0.6,1.6-1.2,3.3-1.7,5.2c-0.5,1.9-1,3.7-1.4,5.3c-0.4,1.7-0.7,3.1-1,4.2c-0.3,1.2-0.5,1.8-0.6,2c-0.3,0.3-0.7,0.5-1,0.6
		c-0.4,0.1-0.8,0.1-1.1,0c-0.5-0.1-1-0.5-1.4-1.3c-0.4-0.8-0.7-1.7-1-2.8c-0.3-1.1-0.6-2.3-0.9-3.5c-0.3-1.2-0.6-2.4-0.9-3.4
		c-0.3-1-0.7-1.9-1-2.6c-0.4-0.7-0.8-1-1.3-1c-0.8,0-1.4,0.6-1.7,1.7c-0.4,1.1-0.6,2.4-0.7,4c-0.1,1.5-0.1,3-0.1,4.6
		c0,1.5,0,2.8,0,3.7c0,1.5-0.2,2.5-0.6,3.2c-0.4,0.7-1.4,1-3.1,1c-1.3,0-2.3-0.5-3-1.4s-1.1-2.1-1.3-3.4C0.1,33.9,0,32.6,0,31.1
		c0-1.4,0-2.6,0-3.6c0-0.5,0-1.6,0-3.2c0-1.6,0.1-3.2,0.2-5c0.1-1.8,0.2-3.4,0.3-4.8c0.1-1.5,0.3-2.3,0.5-2.5
		c0.4-0.3,0.8-0.5,1.3-0.6c0.5-0.1,1-0.2,1.5-0.2c1.1,0,1.9,0.2,2.5,0.6c0.5,0.4,0.8,1.2,0.8,2.3s0,2,0,2.6c0,0.7,0,1.5-0.1,2.6
		c0.6-1,1.2-1.6,1.7-1.9s1.2-0.4,2.1-0.4c1.5,0,2.7,0.9,3.7,2.8c1,1.8,2,4.3,2.8,7.4c0.4-1.3,1-2.9,1.6-4.9c0.7-2,1.5-3.9,2.4-5.7
		c0.9-1.8,2-3.4,3.3-4.7c1.3-1.3,2.7-2,4.4-2c1.3,0,2.3,0.6,3,1.8c0.7,1.2,1.2,2.8,1.5,4.6c0.3,1.9,0.5,3.9,0.5,6.1
		c0,2.2,0.1,4.2,0.1,6c0.1,1.8,0.2,3.4,0.4,4.6c0.2,1.2,0.7,1.8,1.3,1.8c0.9-0.1,1.8-0.5,2.7-1.5c0.9-0.9,1.8-2,2.6-3.3
		c0.8-1.3,1.5-2.6,2.1-4c0.6-1.4,1-2.6,1.3-3.7c0.7-0.2,1.4-0.2,2,0.3C47.4,23.3,47.6,24,47.5,24.8z"/>
	<path class="st0" d="M72.6,16.5c0.4,0,0.9,0.3,1.5,0.8c0.5,0.5,0.7,1,0.5,1.3c-1.2,1.7-2.9,3.1-5,4.3c-2.2,1.2-4.3,1.9-6.3,2.2
		c0,1.5-0.2,3.2-0.5,5c-0.4,1.8-0.9,3.6-1.7,5.2c-0.8,1.6-1.8,3-3.1,4c-1.3,1.1-2.9,1.6-4.8,1.6c-2.1,0-3.8-0.5-5-1.5
		c-1.2-1-2.2-2.3-2.9-3.9c-0.7-1.5-1.1-3.2-1.3-5c-0.2-1.8-0.3-3.5-0.3-5.2c0-0.9,0-1.9,0.1-3c0.1-1.1,0.2-2.2,0.5-3.2
		c0.3-1,0.8-1.8,1.5-2.5c0.7-0.7,1.7-1,2.9-1c0.9,0,1.7,0.2,2.3,0.6v-0.8c0-1.5,0.4-2.8,1.1-4c0.7-1.2,1.9-1.8,3.6-1.8
		c1.5,0,2.8,0.4,3.7,1.3c1,0.8,1.7,1.9,2.3,3.1c0.5,1.2,0.9,2.6,1.2,4c0.2,1.4,0.4,2.7,0.5,3.9c2.2-0.7,4.2-1.5,5.9-2.6
		C70.6,18.3,71.8,17.4,72.6,16.5z M58,25c-0.8,0-1.5-0.2-2.3-0.6c-0.7-0.4-1.4-1-2-1.6c-0.6-0.6-1.2-1.4-1.6-2.2
		c-0.4-0.8-0.7-1.7-0.9-2.6c-0.2,0.8-0.3,1.7-0.4,2.4c-0.1,0.8-0.1,1.5-0.1,2.2c0,1.1,0.1,2.4,0.2,4c0.2,1.6,0.3,3.2,0.6,4.7
		c0.2,1.5,0.5,2.8,0.9,3.9c0.3,1.1,0.7,1.6,1,1.6c1.3,0,2.2-1.1,2.7-3.2C56.7,31.3,57.3,28.5,58,25z M58.2,20.9
		c-0.1-1.4-0.3-2.8-0.6-4.3c-0.3-1.5-0.9-2.8-2-3.9c-0.4,0.8-0.6,1.6-0.6,2.5c0,1.2,0.3,2.2,1,3.2C56.6,19.4,57.4,20.2,58.2,20.9z"
		/>
	<path class="st0" d="M91.4,33.8c0.7,0,1.5-0.5,2.4-1.5c0.8-1,1.7-2.1,2.5-3.5c0.8-1.3,1.6-2.7,2.3-4.2c0.7-1.5,1.2-2.7,1.5-3.7
		c0.1,0,0.2,0.1,0.5,0.2c0.3,0.2,0.6,0.4,0.9,0.6c0.3,0.3,0.5,0.6,0.7,1c0.2,0.4,0.2,0.9,0,1.4c-0.4,1.2-0.9,2.5-1.5,4
		c-0.6,1.5-1.4,2.9-2.3,4.3c-0.9,1.3-2,2.4-3.1,3.3s-2.5,1.3-3.9,1.3c-1.5,0-2.6-0.4-3.5-1.3c-0.9-0.8-1.6-1.9-2.1-3.2
		s-1-2.7-1.3-4.1c-0.3-1.5-0.7-2.9-1-4.1c-0.3-1.3-0.7-2.3-1.2-3.2c-0.5-0.8-1.1-1.3-1.9-1.3c-1.1,0-1.9,0.5-2.4,1.6
		c-0.5,1.1-0.8,2.4-1,4c-0.2,1.5-0.2,3.1-0.2,4.8c0.1,1.6,0.1,3,0.1,4.1c0,0.8,0.1,1.6,0.2,2.3c0.2,0.8,0.2,1.5,0.1,2.1
		c-0.1,0.6-0.3,1.2-0.8,1.5C76,40.8,75.2,41,73.9,41c-1.5,0-2.5-0.7-3.2-2c-0.7-1.3-1.1-2.8-1.4-4.6c-0.2-1.8-0.3-3.6-0.3-5.5
		c0.1-1.8,0.1-3.3,0.1-4.3l0.1-11.3c0-0.8,0.3-1.3,1-1.6c0.7-0.3,1.3-0.5,2-0.5c1.1,0,1.9,0.3,2.4,0.9c0.5,0.6,0.9,1.3,1,2.1
		c0.2,0.8,0.2,1.8,0.2,2.8c-0.1,1-0.1,1.9-0.1,2.7c0.8-1.4,1.6-2.3,2.4-2.9c0.8-0.5,1.7-0.8,2.5-0.8c1.3,0,2.4,0.4,3.3,1.3
		c0.9,0.9,1.6,2,2.2,3.3c0.6,1.3,1.1,2.7,1.5,4.2c0.4,1.5,0.8,2.9,1.1,4.2c0.4,1.3,0.7,2.4,1.1,3.3C90.3,33.4,90.8,33.8,91.4,33.8z"
		/>
	<path class="st0" d="M118.7,21.9c0.5,0,1,0.2,1.5,0.5c0.5,0.3,0.7,0.6,0.6,1c-0.2,1.5-0.7,3.2-1.5,5c-0.8,1.8-1.8,3.5-3.1,5.1
		c-1.2,1.6-2.7,2.9-4.3,4c-1.6,1.1-3.3,1.6-5,1.6c-2.2,0-3.8-0.7-5-2c-1.1-1.3-1.9-3-2.4-4.9c-0.5-1.9-0.7-3.9-0.7-6
		c0-2.1,0-3.9,0-5.5c0-0.6,0-1.3,0.1-2.2c0.1-0.8,0.2-1.6,0.5-2.4c0.2-0.7,0.6-1.3,1.1-1.9c0.5-0.5,1.2-0.8,2.1-0.8
		c0.7,0,1.4,0.2,2.1,0.6c0.7,0.4,1.1,0.9,1.3,1.5c-0.2,0.9-0.3,2.4-0.5,4.5c-0.1,2.1-0.1,4.3,0,6.4c0.1,2.2,0.3,4,0.7,5.7
		c0.4,1.6,1.1,2.5,2,2.5c1.1,0,2.2-0.5,3.3-1.5c1.1-1,2.2-2.1,3.1-3.5c1-1.3,1.8-2.7,2.5-4.2C117.9,24.2,118.4,22.9,118.7,21.9z
		 M102.7,6.5c-1,0-1.6-0.2-1.7-0.7c-0.1-0.5-0.2-1.2-0.2-2c0-1,0.2-1.9,0.5-2.7c0.4-0.8,1.2-1.1,2.4-1.1c0.7,0,1.2,0,1.7,0
		c0.5,0,0.8,0.4,0.9,1c0.1,0.5,0,1-0.1,1.7c-0.1,0.6-0.3,1.2-0.6,1.8c-0.3,0.5-0.7,1-1.2,1.4C103.8,6.3,103.3,6.5,102.7,6.5z"/>
	<path class="st0" d="M146.8,21.3c0.2,0,0.7,0.1,1.3,0.3c0.6,0.2,0.9,0.5,0.9,0.8c-0.2,2.2-0.9,4.4-2.2,6.7
		c-1.3,2.3-2.9,4.3-4.8,6.2c-1.9,1.8-4,3.4-6.3,4.6c-2.3,1.2-4.5,1.8-6.6,1.8c-3.9,0-6.9-1.1-8.9-3.3c-2-2.2-3-5.2-3-9
		c0-1.9,0.2-4,0.5-6.4c0.3-2.4,0.9-4.6,1.7-6.7c0.8-2.1,2-3.8,3.5-5.3c1.5-1.4,3.5-2.1,5.9-2.1c1.8,0,3.1,0.5,4.2,1.4
		c1,0.9,1.5,2.3,1.5,4.1c0,1-0.1,2-0.4,2.8c-0.3,0.8-1,1.3-2.3,1.3c-0.4,0-0.9-0.1-1.5-0.2c-0.6-0.2-1-0.5-1-1
		c0-0.4,0.1-0.9,0.2-1.5c0.1-0.6,0.2-1.2,0.2-1.7c0-0.5,0-1-0.1-1.4c-0.1-0.4-0.4-0.6-0.9-0.6c-0.8,0-1.6,0.7-2.2,2.1
		c-0.6,1.4-1.1,3.1-1.5,5c-0.4,1.9-0.6,3.8-0.8,5.8c-0.2,1.9-0.3,3.4-0.3,4.3c0,0.9,0.1,1.9,0.2,2.9c0.2,1.1,0.4,2,0.9,2.9
		c0.4,0.9,1,1.7,1.7,2.3c0.7,0.6,1.7,0.9,2.8,0.9c2,0,4-0.7,6-2.2c2-1.5,3.7-3.2,5.3-5.2c1.6-2,2.9-3.9,4-5.7
		C146,23.3,146.7,22,146.8,21.3z"/>
	<path class="st0" d="M170.3,37.8c0.3,1.3,0.1,2.3-0.6,2.9c-0.7,0.6-1.4,0.9-1.9,0.9c-1.3,0-2.5-0.3-3.4-1c-0.9-0.6-1.7-1.5-2.2-2.5
		c-0.6-1-1-2.2-1.4-3.5c-0.3-1.3-0.6-2.5-0.8-3.8c-0.4,1.1-1,2.2-1.6,3.3c-0.6,1.1-1.4,2.1-2.3,3c-0.9,0.9-1.9,1.7-3,2.3
		c-1.1,0.6-2.3,0.9-3.5,0.9c-2.2,0-3.7-0.7-4.6-2c-0.9-1.4-1.4-3-1.4-5c0-1.7,0.3-3.7,0.8-6.1s1.3-4.6,2.4-6.8c1.1-2.2,2.4-4,4-5.6
		c1.6-1.5,3.4-2.3,5.5-2.3c0.7,0,1.3,0.1,1.9,0.3c0.6,0.2,1.2,0.5,1.8,0.8c0.9-0.7,2-1,3.2-1c1.1,0,2,0.2,2.6,0.5
		c0.7,0.3,1,1.1,1,2.4c0,1.8-0.1,3.9-0.2,6.4c-0.1,2.5-0.1,4.9,0,7.3c0.1,2.3,0.4,4.3,1,6C168,37,169,37.8,170.3,37.8z M150.3,37.1
		c0.6,0,1.3-0.3,2-1c0.7-0.7,1.4-1.5,2.1-2.5c0.7-1,1.4-2.2,2-3.5c0.6-1.3,1.2-2.6,1.7-3.8c0.5-1.2,0.9-2.3,1.2-3.4
		c0.3-1.1,0.5-1.9,0.5-2.4c0-1-0.1-1.8-0.2-2.5c-0.1-0.6-0.4-1.2-0.8-1.6c-0.4-0.5-1-0.7-1.8-0.7c-0.7,0-1.4,0.5-2.3,1.6
		c-0.8,1.1-1.7,2.4-2.5,4c-0.8,1.6-1.6,3.3-2.2,5.2c-0.7,1.9-1.1,3.6-1.4,5.2c-0.3,1.6-0.3,2.9,0,4
		C148.7,36.6,149.3,37.1,150.3,37.1z"/>
</g>
</svg>
